Coordinates
version=1
nRows=13
nColumns=38
inDegrees=no

Units are S.I. units (second, meters, Newtons, ...)
If the header above contains a line with 'inDegrees', this indicates whether rotational values are in degrees (yes) or radians (no).

endheader
time	pelvis_tilt	pelvis_list	pelvis_rotation	pelvis_tx	pelvis_ty	pelvis_tz	hip_flexion_r	hip_adduction_r	hip_rotation_r	knee_angle_r	ankle_angle_r	subtalar_angle_r	mtp_angle_r	hip_flexion_l	hip_adduction_l	hip_rotation_l	knee_angle_l	ankle_angle_l	subtalar_angle_l	mtp_angle_l	lumbar_extension	lumbar_bending	lumbar_rotation	arm_flex_r	arm_add_r	arm_rot_r	elbow_flex_r	pro_sup_r	wrist_flex_r	wrist_dev_r	arm_flex_l	arm_add_l	arm_rot_l	elbow_flex_l	pro_sup_l	wrist_flex_l	wrist_dev_l
1.37	-0.915578	1.3916	0.00150682	0.81326	1.50068	0.898671	0.135054	-0.0261497	-0.698132	0.181925	0.0156041	0	0	-0.471954	-0.347949	0.226574	0	0.147731	0	0	-7.47556e-06	0.27714	-0.303475	0.163708	-0.457213	0.180586	1.18422	0.00803763	0	0	-0.261776	-0.231852	0.209523	0.585228	1.49316	0	0
1.38	-0.908055	1.42339	0.0371983	0.814124	1.49978	0.901119	0.12146	-0.0583216	-0.698132	0.171189	0.0119144	0	0	-0.433058	-0.330188	0.179621	0.0133548	0.166027	0	0	-0.00464749	0.247127	-0.339927	0.200231	-0.435077	0.176522	1.16396	0.0110673	0	0	-0.252001	-0.23963	0.213146	0.580695	1.49155	0	0
1.39	-0.933943	1.4218	0.0738158	0.813791	1.49188	0.90172	0.111965	-0.0444667	-0.698132	0.154592	0.0077491	0	0	-0.420481	-0.340944	0.1836	0.0313279	0.156921	0	0	0.00255846	0.252244	-0.342389	0.221551	-0.429645	0.18014	1.16136	0.0109016	0	0	-0.256354	-0.24168	0.219169	0.582437	1.49188	0	0
1.4	-0.961086	1.42082	0.111789	0.81349	1.48406	0.90239	0.101924	-0.0306286	-0.698132	0.135651	0.00336911	0	0	-0.405353	-0.350501	0.188034	0.0522939	0.147301	0	0	0.0102567	0.256517	-0.344105	0.242554	-0.423936	0.183102	1.15738	0.0108009	0	0	-0.259818	-0.24416	0.226727	0.582768	1.49011	0	0
1.41	-0.985683	1.42015	0.147559	0.81331	1.47632	0.903198	0.0912046	-0.0171961	-0.698132	0.11648	-0.000260037	0	0	-0.388172	-0.359279	0.192915	0.0764998	0.137053	0	0	0.0178017	0.260286	-0.34514	0.263127	-0.418032	0.184863	1.15197	0.0116699	0	0	-0.262669	-0.246759	0.233601	0.582665	1.48464	0	0
1.42	-1.00924	1.4194	0.182627	0.813091	1.46849	0.904021	0.0807056	-0.0043487	-0.698132	0.098427	-0.00332505	0	0	-0.367761	-0.367338	0.197195	0.105377	0.126567	0	0	0.0253092	0.264055	-0.345468	0.283368	-0.412281	0.185522	1.14578	0.0144452	0	0	-0.264642	-0.249192	0.241822	0.58256	1.48221	0	0
1.43	-1.02959	1.41838	0.215008	0.813081	1.46099	0.905028	0.0703024	0.00817102	-0.698132	0.0826076	-0.0047024	0	0	-0.344536	-0.375309	0.200877	0.138799	0.115752	0	0	0.0326096	0.268224	-0.345693	0.303515	-0.406507	0.185831	1.1393	0.017931	0	0	-0.266084	-0.251506	0.251107	0.582055	1.48525	0	0
1.44	-1.04946	1.41709	0.24703	0.813051	1.45345	0.90602	0.0604907	0.0202533	-0.698132	0.0683839	-0.00491788	0	0	-0.318087	-0.38268	0.205579	0.176695	0.103957	0	0	0.0399629	0.272743	-0.345244	0.323354	-0.401161	0.18593	1.13323	0.0215604	0	0	-0.267172	-0.253699	0.259848	0.581666	1.4872	0	0
1.45	-1.07235	1.41571	0.282107	0.812903	1.44599	0.906956	0.0515079	0.0319906	-0.698132	0.0545397	-0.00512935	0	0	-0.287874	-0.388983	0.212848	0.219196	0.0906664	0	0	0.0478789	0.276889	-0.344181	0.342889	-0.396036	0.184679	1.12575	0.0255088	0	0	-0.268168	-0.255935	0.267525	0.581488	1.48704	0	0
1.46	-1.09816	1.41441	0.319786	0.812699	1.4387	0.907839	0.0435374	0.0434614	-0.698132	0.0409426	-0.00577907	0	0	-0.254309	-0.39397	0.221921	0.265734	0.0746354	0	0	0.0561029	0.280418	-0.342368	0.362725	-0.390371	0.182642	1.1157	0.0307671	0	0	-0.269447	-0.258782	0.275494	0.58231	1.48922	0	0
1.47	-1.12679	1.41315	0.360109	0.812353	1.43145	0.908613	0.0363525	0.0549237	-0.698132	0.0265952	-0.00749558	0	0	-0.217558	-0.39788	0.231	0.31539	0.0561984	0	0	0.0643698	0.283372	-0.339622	0.382359	-0.38493	0.180382	1.1049	0.0378354	0	0	-0.270718	-0.261816	0.282103	0.583608	1.49517	0	0
1.48	-1.15706	1.41196	0.401963	0.811937	1.42432	0.909297	0.0295349	0.0662843	-0.698132	0.0114775	-0.010276	0	0	-0.178219	-0.400661	0.240458	0.367464	0.0352512	0	0	0.0725636	0.285677	-0.336012	0.401765	-0.379597	0.177695	1.09322	0.0479083	0	0	-0.27199	-0.26496	0.285231	0.587449	1.49121	0	0
1.49	-1.18097	1.41049	0.440142	0.811411	1.41714	0.909854	0.0224483	0.0774243	-0.698132	0	-0.0121727	0	0	-0.136184	-0.404354	0.247135	0.421254	0.0143651	0	0	0.0808516	0.287003	-0.334108	0.41907	-0.374112	0.17348	1.08025	0.0631441	0	0	-0.273795	-0.269991	0.289964	0.593427	1.4846	0	0
